HIERARCHY
ROOT hip
{
	OFFSET 0.000000 0.000000 0.000000 
	CHANNELS 6 Xposition Yposition Zposition Xrotation Zrotation Yrotation
	JOINT abdomen
	{
		OFFSET 0.000000 3.402643 0.000000 
		CHANNELS 3 Xrotation Zrotation Yrotation
		JOINT chest
		{
			OFFSET 0.000000 8.438565 -0.680529 
			CHANNELS 3 Xrotation Zrotation Yrotation
			JOINT neck
			{
				OFFSET 0.000000 10.207942 -0.272212 
				CHANNELS 3 Xrotation Zrotation Yrotation
				JOINT head
				{
					OFFSET 0.000000 3.130431 0.000000 
					CHANNELS 3 Xrotation Zrotation Yrotation
					End Site
					{
						OFFSET 0.000000 3.130435 0.000000 
					}
				}
			}
			JOINT lCollar
			{
				OFFSET 3.470700 6.669187 -0.816635 
				CHANNELS 3 Yrotation Zrotation Xrotation
				JOINT lShldr
				{
					OFFSET 3.198488 0.000000 0.000000 
					CHANNELS 3 Zrotation Yrotation Xrotation
					JOINT lForeArm
					{
						OFFSET 10.139888 0.000000 0.000000 
						CHANNELS 3 Yrotation Zrotation Xrotation
						JOINT lHand
						{
							OFFSET 8.370511 0.000000 0.000000 
							CHANNELS 3 Zrotation Yrotation Xrotation
							End Site
							{
								OFFSET 4.083176 0.000000 0.000000 
							}
						}
					}
				}
			}
			JOINT rCollar
			{
				OFFSET -3.470700 6.669187 -0.816635 
				CHANNELS 3 Yrotation Zrotation Xrotation
				JOINT rShldr
				{
					OFFSET -3.198488 0.000000 0.000000 
					CHANNELS 3 Zrotation Yrotation Xrotation
					JOINT rForeArm
					{
						OFFSET -10.139888 0.000000 0.000000 
						CHANNELS 3 Yrotation Zrotation Xrotation
						JOINT rHand
						{
							OFFSET -8.370511 0.000000 0.000000 
							CHANNELS 3 Zrotation Yrotation Xrotation
							End Site
							{
								OFFSET -4.083176 0.000000 0.000000 
							}
						}
					}
				}
			}
		}
	}
	JOINT lThigh
	{
		OFFSET 5.308129 -1.633274 1.361059 
		CHANNELS 3 Xrotation Zrotation Yrotation
		JOINT lShin
		{
			OFFSET -2.041588 -20.007561 0.000000 
			CHANNELS 3 Xrotation Zrotation Yrotation
			JOINT lFoot
			{
				OFFSET 0.000000 -19.190928 -1.224953 
				CHANNELS 3 Xrotation Yrotation Zrotation
				End Site
				{
					OFFSET 0.000000 -2.449906 4.627600 
				}
			}
		}
	}
	JOINT rThigh
	{
		OFFSET -5.308129 -1.633274 1.361059 
		CHANNELS 3 Xrotation Zrotation Yrotation
		JOINT rShin
		{
			OFFSET 2.041588 -20.007561 0.000000 
			CHANNELS 3 Xrotation Zrotation Yrotation
			JOINT rFoot
			{
				OFFSET 0.000000 -19.190928 -1.224953 
				CHANNELS 3 Xrotation Yrotation Zrotation
				End Site
				{
					OFFSET 0.000000 -2.449906 4.627600 
				}
			}
		}
	}
}
MOTION
Frames: 17
Frame Time: 0.033333
-11.495578 51.922932 123.313606 -1.854868 -0.279067 -170.195236 0.000000 0.000000 0.000000 -0.206296 -1.444366 -0.648205 2.879010 -0.800742 -0.566487 5.195019 -1.845597 0.615544 -5.105278 -5.830753 0.118102 -65.813911 -2.797068 17.997351 -38.211143 -4.957698 22.405163 2.592263 7.817157 -3.463769 6.818251 12.354515 -0.329315 62.961967 -12.684575 5.728160 36.468254 4.989480 21.984116 -23.268698 -6.328396 -2.939981 -0.214951 4.704016 7.038515 1.529832 -5.288103 2.015110 -0.272310 0.100785 0.906162 -0.185787 -5.370914 -6.363104 5.250274 3.599226 -6.089986 -0.947800 0.048083 -2.914905 
-11.610868 51.935089 123.497482 -1.688007 0.308429 -170.742004 0.000000 0.000000 0.000000 0.047991 -1.233766 -0.599444 3.002368 -0.576156 -0.429764 5.100028 -2.050605 0.752171 -4.954451 -5.404105 0.381419 -66.106087 -3.560179 17.822985 -38.189148 -4.670273 23.694572 1.767627 7.469781 -3.489807 6.779492 12.595914 -0.101030 62.666576 -12.453794 5.626278 36.631779 4.991201 21.728912 -23.308411 -6.321467 -2.939595 -0.468894 5.279313 7.533832 2.038073 -5.477004 1.981929 -0.617453 0.140070 1.058711 -0.293039 -4.800498 -5.797838 5.003699 3.323509 -6.114813 -0.529793 0.075495 -2.607569 
-11.707103 51.905357 123.704674 -1.985032 0.607849 -171.112747 0.000000 0.000000 0.000000 0.008939 -1.257805 -0.646218 2.944577 -0.790999 -0.371193 4.968113 -1.777206 0.713153 -4.985496 -5.723164 0.342693 -65.587250 -3.681531 18.515108 -38.639408 -5.001146 21.218739 3.241048 7.595140 -3.441332 6.693124 12.262893 -0.110481 62.807892 -12.449795 5.588063 36.571625 4.988825 21.648594 -23.478653 -6.536570 -2.903539 -1.376301 5.580097 7.708314 2.963883 -5.708491 1.958600 -0.967472 0.071866 1.107192 -0.927243 -4.653025 -5.482540 5.212082 3.200795 -5.880078 -0.860770 0.063926 -2.887015 
-11.775294 51.866661 123.947365 -2.703463 0.676348 -171.649704 0.000000 0.000000 0.000000 -0.274926 -1.502313 -0.534828 2.689644 -1.044914 -0.224750 4.981088 -1.562386 0.693368 -4.924718 -5.806653 0.068745 -65.349281 -3.476500 18.728685 -38.701248 -5.008110 21.636602 2.541706 7.696371 -3.466954 6.908254 12.009884 -0.348170 62.800220 -12.874731 5.615771 36.735096 4.988822 21.491501 -23.792063 -6.679255 -2.864302 -2.692886 5.530095 7.573332 3.735562 -5.807664 2.649616 -1.044363 0.069905 1.033384 -3.044890 -4.605831 -4.764498 7.485326 2.624727 -5.375735 -1.170879 0.044776 -3.033602 
-11.829456 51.842960 124.174675 176.936310 179.071503 7.950383 0.000000 0.000000 0.000000 -0.235936 -1.519000 -0.503823 2.348161 -1.035147 -0.244277 5.302793 -1.679575 0.664064 -5.010223 -6.072136 0.088096 -64.431633 -2.972343 18.504387 -38.863579 -5.003215 24.066978 1.074648 7.171196 -3.518750 6.909982 12.053591 -0.308205 62.720284 -13.126017 5.707222 37.011742 4.987821 21.756117 -23.284319 -6.934122 -2.832265 -3.688491 5.726666 7.599240 4.547978 -5.847845 2.839742 -1.263712 0.085237 1.071751 -4.596739 -4.635276 -4.653157 9.601464 2.838818 -3.815856 -1.122153 0.066443 -2.877920 
-11.888136 51.843594 124.327011 177.129883 179.129074 7.725641 0.000000 0.000000 0.000000 0.105739 -1.605049 -0.583974 2.702291 -1.279278 -0.312640 4.641446 -1.611241 0.595742 -5.280794 -6.421007 0.372649 -63.885483 -2.324787 18.554573 -38.239441 -5.007161 23.437374 1.153490 7.450393 -3.520633 6.800544 11.839410 0.028472 62.918056 -13.317684 5.954667 36.640907 4.987990 22.067289 -23.226456 -6.927372 -2.830428 -3.716514 5.636305 7.498277 4.694458 -5.801409 3.110460 -1.102333 0.062952 0.936563 -5.541967 -4.799693 -4.839834 11.973315 2.955925 -3.683369 -1.455464 0.088371 -3.092647 
-11.898183 51.842228 124.400063 177.342514 179.070969 7.706118 0.000000 0.000000 0.000000 0.447844 -1.595182 -0.790898 2.784645 -1.494099 -0.430051 4.357555 -1.650298 0.605499 -5.441885 -6.470597 0.675280 -63.436523 -1.782661 18.629810 -37.395519 -5.008393 22.465067 1.316025 7.950150 -3.514030 6.501948 11.718599 0.346381 63.217964 -13.333293 6.181984 36.467068 4.991768 22.382746 -23.071808 -7.172298 -2.792635 -3.524677 5.701475 7.536809 4.596246 -5.800644 2.953441 -0.970726 0.063646 0.831575 -5.805565 -4.731578 -4.934228 13.294315 3.093704 -3.203822 -1.323735 0.075438 -2.928642 
-11.887819 51.845097 124.421478 177.324203 179.216309 7.803470 0.000000 0.000000 0.000000 0.457511 -1.726553 -0.935431 2.740543 -1.699144 -0.537452 4.535398 -1.611255 0.546933 -5.649180 -6.471075 0.655734 -63.229507 -0.793102 18.506567 -36.205154 -5.003682 22.715458 1.926442 8.449534 -3.486407 6.334706 11.591743 0.356001 63.646366 -13.807260 6.254293 36.103729 4.993172 22.685564 -22.951368 -7.074097 -2.815368 -3.385836 5.589707 7.569189 4.246097 -5.907774 2.797409 -1.030338 0.057448 0.944640 -5.497778 -4.736059 -5.014421 13.073226 3.124265 -3.137742 -1.630681 0.095361 -3.154571 
-11.867084 51.842098 124.403412 177.360352 179.313141 7.852165 0.000000 0.000000 0.000000 0.379551 -1.713541 -1.005324 2.742881 -1.816315 -0.576501 5.146335 -1.923728 0.586263 -5.731800 -6.777621 0.588119 -62.645695 0.591067 18.391918 -35.164722 -4.997602 22.947906 1.781693 8.870916 -3.490407 6.241106 11.603194 0.285577 64.000755 -14.472264 6.312139 35.698906 4.992507 23.099928 -22.935749 -7.152858 -2.804646 -3.367955 5.573639 7.607714 4.397272 -5.929755 2.500077 -0.953873 0.047250 0.919440 -4.769877 -4.612826 -4.961423 11.830084 3.035259 -3.637250 -1.673663 0.060343 -3.273848 
-11.860268 51.844997 124.366371 177.309708 179.670914 7.627106 0.000000 0.000000 0.000000 0.193420 -1.791465 -0.791969 3.092215 -2.001889 -0.459387 4.311912 -2.236199 0.615528 -5.418851 -6.826947 0.422029 -62.682648 2.101786 17.896481 -34.006111 -5.001346 24.003279 1.685236 8.717688 -3.491910 6.416001 11.393358 0.148482 64.626740 -15.506289 5.831545 35.552551 4.991619 23.576845 -22.663866 -6.844365 -2.869175 -3.141485 5.188828 7.362153 4.057086 -5.836091 2.903106 -0.840195 0.060708 0.934743 -4.139933 -4.813468 -5.018305 10.479758 2.877850 -3.864166 -1.737900 0.064173 -3.304516 
-11.873882 51.850960 124.249512 177.360809 -179.980621 7.294922 0.000000 0.000000 0.000000 -0.051235 -1.818551 -0.455899 3.565292 -1.884736 -0.322734 2.753213 -2.704912 0.635441 -5.288960 -6.289380 0.215847 -63.853416 4.071908 16.509281 -33.035690 -5.003090 24.781796 1.831439 9.138651 -3.491083 6.839836 11.378586 -0.070393 64.980339 -16.639688 5.753601 35.237946 4.994642 23.323727 -23.026226 -6.705867 -2.883131 -2.402574 4.765437 7.139102 3.170741 -5.759777 2.924867 -0.966014 0.090369 1.187713 -3.121160 -5.148489 -5.327411 8.886301 3.007823 -3.490706 -1.752131 0.056999 -3.275987 
-11.830790 51.865887 124.127487 177.569244 -179.844864 6.855470 0.000000 0.000000 0.000000 -0.080559 -1.754847 -0.197071 3.517889 -1.660155 -0.078375 2.371717 -3.114973 0.743214 -5.302082 -5.167279 0.225374 -65.753548 6.454975 14.808060 -33.032791 -5.007604 23.557838 2.911330 9.463632 -3.427896 7.075852 11.162261 -0.079846 65.410782 -17.227932 5.991560 35.068836 4.991537 23.154198 -22.946299 -6.728796 -2.880644 -1.746012 4.591905 6.995663 2.672448 -5.525926 3.409348 -0.845873 0.093209 1.167304 -2.010425 -5.170565 -5.459406 7.261395 3.093559 -3.075195 -1.465733 0.056602 -3.021297 
-11.778164 51.898819 123.975273 177.895111 -179.524551 6.494321 0.000000 0.000000 0.000000 -0.031721 -1.757605 -0.226238 3.501198 -1.708978 0.156180 2.405431 -3.046532 0.860236 -5.428203 -4.003303 0.302681 -67.698013 9.276074 13.679807 -33.469227 -5.001515 20.759720 3.945728 9.453652 -3.369051 7.041016 10.507813 -0.001781 65.861618 -17.421455 6.684801 34.510380 4.993080 23.494265 -22.082348 -6.765628 -2.894984 -0.497885 4.242865 6.880368 1.306018 -5.370508 3.809924 -0.436865 0.100470 1.136792 -0.966149 -5.481644 -5.934609 6.169612 3.309335 -3.012212 -1.679731 0.071795 -3.132856 
-11.717589 51.954250 123.819504 178.076736 -179.388519 6.328388 0.000000 0.000000 0.000000 -0.168021 -1.614528 -0.269185 3.547328 -1.660140 0.253800 2.163190 -3.173376 0.968017 -5.623420 -2.796427 0.233920 -69.217545 11.821760 13.679078 -33.608574 -4.997669 17.312418 4.066183 8.815540 -3.382873 6.982055 10.182273 -0.108401 65.807327 -17.641073 7.349119 34.018372 4.989254 24.285213 -21.103903 -6.748672 -2.933832 0.613480 4.015779 6.701200 -0.363639 -5.116020 4.386561 0.091978 0.043425 1.071000 -0.156458 -5.710410 -6.335388 5.433663 3.715452 -1.888505 -1.072748 0.058976 -2.565952 
-11.662591 51.965088 123.676582 178.180344 -179.165131 6.231085 0.000000 0.000000 0.000000 -0.226396 -1.606500 -0.495554 3.428235 -1.552707 0.341671 2.040991 -3.231699 1.212865 -5.618669 -1.633331 0.223717 -70.572182 13.975877 14.150253 -34.062431 -5.001470 16.031965 3.152325 9.361916 -3.416241 6.796907 10.078051 -0.169146 65.277367 -17.583073 7.980577 33.820827 4.989067 24.749655 -21.134790 -6.861015 -2.918072 1.422933 3.655848 6.390285 -1.591607 -4.818305 5.142817 0.433851 0.099212 1.090573 0.145694 -5.908518 -6.599211 5.413551 3.821810 -2.169573 -1.550362 0.083826 -2.832918 
-11.585284 51.947315 123.528008 178.156219 -179.087036 5.986966 0.000000 0.000000 0.000000 -0.392074 -1.469470 -0.498695 2.994812 -1.337827 0.556717 2.872130 -3.485247 1.427893 -5.818954 -0.733549 0.106984 -71.475975 15.943757 14.739528 -34.569614 -5.000915 16.650425 2.354882 9.907052 -3.455870 6.835999 10.068069 -0.336564 64.786957 -17.613001 7.817451 33.768341 4.994079 24.225889 -21.745996 -6.532721 -2.949412 1.238795 3.619321 6.344893 -0.977232 -4.652996 5.743725 0.188032 0.071568 1.175181 0.740742 -5.899904 -6.726694 4.471421 4.011382 -1.472569 -1.224380 0.057949 -2.630483 
-11.526073 51.951309 123.371475 178.609421 -178.911926 5.840827 0.000000 0.000000 0.000000 -0.176907 -1.358317 -0.568054 2.813386 -1.367060 0.781261 3.920759 -3.143433 1.515678 -6.005252 -0.122629 0.330229 -72.116966 17.513851 15.152859 -35.048214 -5.000196 18.547827 2.449973 8.806179 -3.451251 6.723332 10.062147 -0.138812 64.446259 -17.215519 7.034216 33.303497 4.993765 23.279272 -22.235146 -6.257425 -2.986939 1.725226 3.520089 6.348567 -0.792706 -4.577889 6.078620 0.466769 0.063076 1.056040 1.473527 -6.002983 -7.038073 4.246971 4.158219 -1.359363 -1.544978 0.059019 -2.895139 
